<?xml version="1.0" standalone="no"?>
<!DOCTYPE svg PUBLIC "-//W3C//DTD SVG 20010904//EN"
 "http://www.w3.org/TR/2001/REC-SVG-20010904/DTD/svg10.dtd">
<svg version="1.0" xmlns="http://www.w3.org/2000/svg"
 width="625.000000pt" height="625.000000pt" viewBox="0 0 625.000000 625.000000"
 preserveAspectRatio="xMidYMid meet">
<metadata>
Created by potrace 1.14, written by Peter Selinger 2001-2017
</metadata>
<g transform="translate(0.000000,625.000000) scale(0.100000,-0.100000)"
fill="#000000" stroke="none">
<path d="M5208 6245 c-2 -1 -33 -5 -70 -9 -104 -10 -263 -42 -417 -86 -673
-190 -1495 -677 -2261 -1339 -296 -256 -594 -547 -844 -821 -32 -36 -73 -81
-91 -100 -35 -38 -190 -221 -245 -289 -19 -24 -56 -69 -81 -100 -43 -53 -234
-307 -272 -361 -175 -253 -284 -428 -463 -740 -32 -56 -164 -332 -204 -425
-77 -181 -168 -447 -195 -572 -3 -13 -7 -33 -10 -45 -37 -167 -49 -276 -49
-438 0 -157 8 -227 39 -335 30 -103 57 -162 106 -236 121 -180 305 -289 563
-332 76 -13 347 -16 411 -4 17 3 50 9 75 12 25 4 77 13 115 21 39 9 78 17 87
19 43 9 183 50 277 82 536 178 1157 534 1774 1016 70 55 134 105 140 111 7 6
48 40 91 75 81 66 97 80 276 240 251 226 580 560 807 820 13 14 36 42 53 61
17 19 76 91 132 160 56 69 105 127 108 130 17 14 280 373 362 495 86 126 258
399 258 409 0 2 17 33 39 67 75 124 219 417 292 592 100 239 195 564 214 732
3 22 8 54 12 70 9 44 11 321 2 369 -4 23 -9 57 -12 76 -42 271 -204 488 -446
594 -127 56 -239 77 -428 81 -78 2 -143 2 -145 0z"/>
</g>
</svg>
